<svg id="Icon" xmlns="http://www.w3.org/2000/svg" width="15.414" height="15.414" viewBox="0 0 15.414 15.414">
  <rect id="Area" width="15.414" height="15.414" fill="#fcfcfc" opacity="0"/>
  <g id="Icon-2" data-name="Icon">
    <path id="_87e07cf1-b90e-4a2e-820e-40215b176fce" data-name="87e07cf1-b90e-4a2e-820e-40215b176fce" d="M0,0H15.412V15.412H0Z" fill="none"/>
    <path id="_3bbb305d-b256-4680-97f9-55b7a55f6083" data-name="3bbb305d-b256-4680-97f9-55b7a55f6083" d="M15.75,5.833a5.137,5.137,0,0,1,.707,3.211v.642a3.856,3.856,0,0,0,.513,1.927" transform="translate(-3.613 -1.338)" fill="none" stroke="#5a5165" stroke-linecap="round" stroke-linejoin="round" stroke-width="1"/>
    <path id="_99bd4975-e723-423e-be8a-f030c7fe7e83" data-name="99bd4975-e723-423e-be8a-f030c7fe7e83" d="M6.667,8.4a2.568,2.568,0,1,1,5.137,0v.642A6.421,6.421,0,0,0,13.088,12.9" transform="translate(-1.529 -1.338)" fill="none" stroke="#5a5165" stroke-linecap="round" stroke-linejoin="round" stroke-width="1"/>
    <path id="_789810a7-c570-4c79-a747-3d86d055e0a7" data-name="789810a7-c570-4c79-a747-3d86d055e0a7" d="M10,9.167v1.284a8.988,8.988,0,0,0,1.605,5.138" transform="translate(-2.294 -2.103)" fill="none" stroke="#5a5165" stroke-linecap="round" stroke-linejoin="round" stroke-width="1"/>
    <path id="_49f39253-9506-44a7-847d-74f6de95805e" data-name="49f39253-9506-44a7-847d-74f6de95805e" d="M6.667,12.5a11.546,11.546,0,0,0,1.156,3.853" transform="translate(-1.529 -2.867)" fill="none" stroke="#5a5165" stroke-linecap="round" stroke-linejoin="round" stroke-width="1"/>
    <path id="_4a52f363-80c2-4275-979b-8a44d7cc832e" data-name="4a52f363-80c2-4275-979b-8a44d7cc832e" d="M3.909,12.77a14.144,14.144,0,0,1-.578-4.495V7.633A5.138,5.138,0,0,1,11.037,3.17" transform="translate(-0.762 -0.569)" fill="none" stroke="#5a5165" stroke-linecap="round" stroke-linejoin="round" stroke-width="1"/>
  </g>
</svg>
