<svg id="Icon" xmlns="http://www.w3.org/2000/svg" width="16.771" height="16.771" viewBox="0 0 16.771 16.771">
  <rect id="Area" width="16.771" height="16.771" fill="#fcfcfc" opacity="0"/>
  <g id="Icon-2" data-name="Icon">
    <path id="_18ba41ee-a2a2-469d-80af-1f56fb60ea05" data-name="18ba41ee-a2a2-469d-80af-1f56fb60ea05" d="M0,0H16.771V16.771H0Z" fill="none"/>
    <path id="_5360c323-313e-4eef-a743-0dace862d8a7" data-name="5360c323-313e-4eef-a743-0dace862d8a7" d="M9.818,7.721a2.1,2.1,0,1,1-2.1-2.1A2.1,2.1,0,0,1,9.818,7.721Z" transform="translate(0.664 0.664)" fill="none" stroke="#3d3d3d" stroke-linecap="round" stroke-linejoin="round" stroke-width="1.25"/>
    <path id="_640cff76-4631-4d46-ae2a-6775cae8f062" data-name="640cff76-4631-4d46-ae2a-6775cae8f062" d="M3.273,3.75h9.783a1.4,1.4,0,0,1,1.4,1.4v5.59a1.4,1.4,0,0,1-1.4,1.4H3.273a1.4,1.4,0,0,1-1.4-1.4V5.148A1.4,1.4,0,0,1,3.273,3.75Z" transform="translate(0.221 0.443)" fill="none" stroke="#3d3d3d" stroke-linecap="round" stroke-linejoin="round" stroke-width="1"/>
    <path id="_354e520a-b07a-4524-947e-4893d3007cae" data-name="354e520a-b07a-4524-947e-4893d3007cae" d="M11.25,7.5h.007" transform="translate(1.329 0.886)" fill="none" stroke="#3d3d3d" stroke-linecap="round" stroke-linejoin="round" stroke-width="1.25"/>
    <path id="d36d449f-81ae-4940-80ba-0268001fa78d" d="M3.75,7.5h.007" transform="translate(0.443 0.886)" fill="none" stroke="#3d3d3d" stroke-linecap="round" stroke-linejoin="round" stroke-width="1.25"/>
  </g>
</svg>
