<svg xmlns="http://www.w3.org/2000/svg" width="14.261" height="12.43" viewBox="0 0 14.261 12.43">
  <path id="credit-card-refresh-svgrepo-com" d="M15.261,7.284H2m5.967,5.508h5.172a3.551,3.551,0,0,0,1.4-.133,1.28,1.28,0,0,0,.579-.535,2.823,2.823,0,0,0,.145-1.29V6.183a2.823,2.823,0,0,0-.145-1.29,1.28,1.28,0,0,0-.579-.535,3.552,3.552,0,0,0-1.4-.133H11.945M7.967,12.793l1.326,1.224M7.967,12.793l1.326-1.224M5.315,12.793H4.122a3.551,3.551,0,0,1-1.4-.133,1.28,1.28,0,0,1-.58-.535A2.823,2.823,0,0,1,2,10.834V6.183a2.823,2.823,0,0,1,.145-1.29,1.28,1.28,0,0,1,.58-.535,3.552,3.552,0,0,1,1.4-.133H9.293m0,0L7.967,5.448M9.293,4.224,7.967,3" transform="translate(-1.5 -2.293)" fill="none" stroke="#5a5165" stroke-linecap="round" stroke-linejoin="round" stroke-width="1"/>
</svg>
