<svg id="Icon" xmlns="http://www.w3.org/2000/svg" width="18.592" height="18.592" viewBox="0 0 18.592 18.592">
  <rect id="Area" width="18.592" height="18.592" fill="#fcfcfc" opacity="0"/>
  <g id="Icon-2" data-name="Icon">
    <path id="cea8b32b-07fa-4df2-bfbf-9c532cc3ba3c" d="M0,0H18.592V18.592H0Z" fill="none"/>
    <path id="b1917338-a371-4256-bf7a-51569b409fa8" d="M3.333,4.167h1.55" transform="translate(-0.235 -0.293)" fill="none" stroke="#5a5165" stroke-linecap="round" stroke-linejoin="round" stroke-width="1"/>
    <path id="edba12f1-9b03-4797-b7a5-903980ecbebf" d="M4.167,3.333v1.55" transform="translate(-0.293 -0.235)" fill="none" stroke="#5a5165" stroke-linecap="round" stroke-linejoin="round" stroke-width="1"/>
    <path id="_4ce3838a-fdfb-42ed-9eb1-871934632e4e" data-name="4ce3838a-fdfb-42ed-9eb1-871934632e4e" d="M9.554,3.333l-.387,1.55" transform="translate(-0.645 -0.235)" fill="none" stroke="#5a5165" stroke-linecap="round" stroke-linejoin="round" stroke-width="1"/>
    <path id="_9e730cde-2d1b-49f2-95aa-1fb792e943ff" data-name="9e730cde-2d1b-49f2-95aa-1fb792e943ff" d="M15,4.167h1.55" transform="translate(-1.056 -0.293)" fill="none" stroke="#5a5165" stroke-linecap="round" stroke-linejoin="round" stroke-width="1"/>
    <path id="_9d1bee11-c463-4f45-a5b6-49e9109ab452" data-name="9d1bee11-c463-4f45-a5b6-49e9109ab452" d="M15.833,3.333v1.55" transform="translate(-1.114 -0.235)" fill="none" stroke="#5a5165" stroke-linecap="round" stroke-linejoin="round" stroke-width="1"/>
    <path id="de442ea4-1fd9-4a10-8d8c-aceb96438834" d="M12.441,7.5l-.774.774" transform="translate(-0.821 -0.528)" fill="none" stroke="#5a5165" stroke-linecap="round" stroke-linejoin="round" stroke-width="1"/>
    <path id="_5a657ec7-4c04-463d-ae72-0e235a67a4e1" data-name="5a657ec7-4c04-463d-ae72-0e235a67a4e1" d="M15,10.8l1.55-.387" transform="translate(-1.056 -0.733)" fill="none" stroke="#5a5165" stroke-linecap="round" stroke-linejoin="round" stroke-width="1"/>
    <path id="_5fff8e5f-9218-4b54-b689-77b1e4c183f1" data-name="5fff8e5f-9218-4b54-b689-77b1e4c183f1" d="M15,15.833h1.55" transform="translate(-1.056 -1.114)" fill="none" stroke="#5a5165" stroke-linecap="round" stroke-linejoin="round" stroke-width="1"/>
    <path id="fdf14396-c76f-49d4-b1b9-0daf58bf1de9" d="M15.833,15v1.55" transform="translate(-1.114 -1.056)" fill="none" stroke="#5a5165" stroke-linecap="round" stroke-linejoin="round" stroke-width="1"/>
    <path id="d2eaee6f-e437-41c8-9387-e89020f6cede" d="M11.022,13.383l-5.05-5.05-3.4,7.422A.777.777,0,0,0,3.6,16.784l7.421-3.4Z" transform="translate(-0.176 -0.587)" fill="none" stroke="#5a5165" stroke-linecap="round" stroke-linejoin="round" stroke-width="1"/>
  </g>
</svg>
